PathFileType	4	(X/Y/Z)	OpenSim_Sub08_CSStiffKnee_Magnet.trc
DataRate	CameraRate	NumFrames	NumMarkers	Units	OrigDataRate	OrigDataStartFrame	OrigNumFrames
100	100	26	8	m	100	1321	5282
Frame#	Time	torso_imu_offset_imu	pelvis_imu_offset_imu	tibia_r_imu_offset_imu	femur_r_imu_offset_imu	tibia_l_imu_offset_imu	femur_l_imu_offset_imu	toes_r_imu_offset_imu	toes_l_imu_offset_imu
				X1	Y1	Z1	X2	Y2	Z2	X3	Y3	Z3	X4	Y4	Z4	X5	Y5	Z5	X6	Y6	Z6	X7	Y7	Z7	X8		Y8	Z8	

1321	13.20000000	-0.90767499	-0.23690126	0.09312762	-0.63252829	0.30986051	-0.63867033	-0.67239531	-0.49332314	-0.15455973	-0.80553587	-0.29985547	-0.15002552	-0.61904561	0.42724670	0.32443599	-0.55538382	-0.01361998	0.36288617	-0.54574847	-0.22358184	-0.52420541	-0.69893839	-0.26502742	-0.34478061
1322	13.21000000	-0.90715702	-0.23361939	0.09460634	-0.63307951	0.31238758	-0.64207392	-0.67694189	-0.47877306	-0.15060799	-0.80893844	-0.29232985	-0.15336848	-0.61779193	0.43697070	0.32232945	-0.55524116	-0.01276048	0.36535274	-0.54504942	-0.21462217	-0.53279738	-0.69770530	-0.27070280	-0.35196377
1323	13.22000000	-0.90827618	-0.23636620	0.09930728	-0.63319028	0.30890328	-0.63779260	-0.69020976	-0.46759138	-0.14431406	-0.80902061	-0.28177051	-0.15645105	-0.61751743	0.43824324	0.32338044	-0.55299929	-0.00559061	0.36606988	-0.53839736	-0.20476400	-0.53768943	-0.69932665	-0.26944112	-0.34947656
1324	13.23000000	-0.90968824	-0.24086957	0.09840368	-0.63152225	0.30822991	-0.63088192	-0.69570344	-0.45750242	-0.14408341	-0.81462898	-0.27596048	-0.15655520	-0.61220986	0.43743795	0.32711167	-0.54962607	-0.00449047	0.36720688	-0.53723114	-0.19801020	-0.54865189	-0.70106446	-0.26249609	-0.34678022
1325	13.24000000	-0.90823059	-0.24424928	0.09915052	-0.63228322	0.30757258	-0.62938847	-0.70181299	-0.43915533	-0.14638619	-0.81747333	-0.26523558	-0.16303617	-0.60750063	0.44075995	0.32999614	-0.54659157	-0.00208250	0.37595061	-0.53609759	-0.19023757	-0.55478103	-0.70018090	-0.26050238	-0.34741717
1326	13.25000000	-0.90563127	-0.24499356	0.10466449	-0.63771473	0.30471114	-0.63494983	-0.71359897	-0.43123252	-0.14604259	-0.82123968	-0.25290959	-0.16584787	-0.60582751	0.44832773	0.32562102	-0.54330566	0.00040098	0.37789204	-0.53001851	-0.17870565	-0.55766176	-0.70258770	-0.26226788	-0.34011736
1327	13.26000000	-0.90482283	-0.24574659	0.10071901	-0.63887947	0.30512710	-0.63211185	-0.71692439	-0.41690910	-0.14792069	-0.82356319	-0.24586106	-0.17140408	-0.60422983	0.46032549	0.32583027	-0.54715342	0.00191496	0.37554085	-0.52742163	-0.17236370	-0.56759743	-0.69961394	-0.26360710	-0.35128441
1328	13.27000000	-0.90403167	-0.24882807	0.10784397	-0.64273415	0.30510444	-0.62456527	-0.72094960	-0.40134447	-0.15024329	-0.82444757	-0.23554040	-0.17511617	-0.59993480	0.46165030	0.32598239	-0.54633829	0.00710693	0.37778642	-0.52606420	-0.16528567	-0.56687626	-0.70391493	-0.26161122	-0.34998851
1329	13.28000000	-0.90760837	-0.24743638	0.11463309	-0.64534679	0.30383350	-0.62514832	-0.73039470	-0.39110351	-0.15518778	-0.82713267	-0.22802395	-0.17738800	-0.59265072	0.45958244	0.32437168	-0.53958681	0.00969431	0.37622372	-0.52160980	-0.15645299	-0.57468902	-0.70192032	-0.25531478	-0.34513431
1330	13.29000000	-0.90587371	-0.25095928	0.11169516	-0.64300617	0.30329455	-0.62160532	-0.74031609	-0.37774722	-0.15441807	-0.82918065	-0.21808566	-0.18003070	-0.59388457	0.46900108	0.33194416	-0.53686037	0.01444757	0.38093131	-0.51716611	-0.14960787	-0.58212177	-0.70080402	-0.25802155	-0.35516738
1331	13.30000000	-0.90319116	-0.24967462	0.11266041	-0.64475190	0.30055705	-0.62143316	-0.74352231	-0.36719286	-0.14941104	-0.83221787	-0.21017864	-0.17634383	-0.58906162	0.47669961	0.33259219	-0.53614748	0.01866765	0.39015240	-0.51644753	-0.14233167	-0.58873539	-0.70842348	-0.25752164	-0.34967591
1332	13.31000000	-0.90329502	-0.25235850	0.11152371	-0.65259021	0.29944086	-0.62526856	-0.74924829	-0.35340071	-0.15489013	-0.83117499	-0.20145364	-0.18594611	-0.58200609	0.47558061	0.33405459	-0.53528658	0.01598609	0.38634184	-0.51171140	-0.13506947	-0.59269180	-0.71055755	-0.25034514	-0.35092635
1333	13.32000000	-0.90525699	-0.25578449	0.11690538	-0.64927587	0.30007974	-0.63042360	-0.75679779	-0.34447903	-0.15925069	-0.82843593	-0.18832391	-0.19187237	-0.58285365	0.48117695	0.33305244	-0.53165946	0.01754636	0.38857673	-0.50775286	-0.12818234	-0.59665054	-0.70926444	-0.24921430	-0.35086670
1334	13.33000000	-0.90212950	-0.25791902	0.12251577	-0.65024006	0.29876204	-0.62513278	-0.75941855	-0.32968815	-0.16440685	-0.83140180	-0.18325332	-0.18709678	-0.57894820	0.48520945	0.32784601	-0.52780222	0.02030323	0.39760597	-0.50415215	-0.11950367	-0.60917717	-0.71471333	-0.24693577	-0.34958021
1335	13.34000000	-0.90059401	-0.25816354	0.12038780	-0.65558714	0.29683347	-0.61376529	-0.76341949	-0.31775524	-0.16069141	-0.83448288	-0.17830254	-0.18296838	-0.57520005	0.48362487	0.33755789	-0.52858002	0.02035096	0.39703563	-0.49785431	-0.11182110	-0.60958577	-0.72021126	-0.24372400	-0.34846945
1336	13.35000000	-0.90448996	-0.25505093	0.11807155	-0.65010902	0.29271385	-0.61822968	-0.76667548	-0.31194951	-0.15416003	-0.83161180	-0.17186490	-0.17847044	-0.57466061	0.49407856	0.34029482	-0.52825794	0.02454357	0.39828550	-0.49121513	-0.10756057	-0.61681576	-0.71880163	-0.23907649	-0.34791313
1337	13.36000000	-0.90200629	-0.25584161	0.12357577	-0.64879052	0.29311465	-0.62263560	-0.77021958	-0.30160483	-0.16068799	-0.83668853	-0.16548786	-0.18200759	-0.56667940	0.49724475	0.33678510	-0.52135070	0.01956477	0.40072487	-0.48824218	-0.09978151	-0.62386357	-0.72202648	-0.23478604	-0.35219480
1338	13.37000000	-0.90255251	-0.25499800	0.12883837	-0.64636051	0.29511230	-0.62029218	-0.77305108	-0.29318580	-0.16027202	-0.83747232	-0.16035527	-0.18654782	-0.56096504	0.49484792	0.33508604	-0.51802212	0.02552271	0.40289963	-0.48800629	-0.09246488	-0.61905094	-0.72488046	-0.23022833	-0.34688393
1339	13.38000000	-0.90260716	-0.25074663	0.12752161	-0.65187617	0.29224654	-0.62006993	-0.77279936	-0.28737009	-0.15812282	-0.83683042	-0.15671431	-0.18538749	-0.55847969	0.50377157	0.33880137	-0.51944667	0.03166351	0.41238885	-0.47959402	-0.08721347	-0.62264840	-0.73080593	-0.22665724	-0.34504675
1340	13.39000000	-0.90251333	-0.25086685	0.12795368	-0.65626118	0.29005254	-0.62290599	-0.78037275	-0.27382335	-0.16316820	-0.84010924	-0.15767200	-0.17990420	-0.55420656	0.50810304	0.34193724	-0.51616118	0.03233088	0.41714847	-0.47990936	-0.07744762	-0.63190157	-0.73092145	-0.22599806	-0.34476833
1341	13.40000000	-0.90283402	-0.25436272	0.12754217	-0.65090660	0.28948554	-0.62414498	-0.78213166	-0.26708463	-0.15822814	-0.83907888	-0.15644458	-0.17733307	-0.54814945	0.51563564	0.33648093	-0.50913987	0.03832284	0.41443852	-0.48062104	-0.07327142	-0.63383418	-0.73298889	-0.22506551	-0.34774982
1342	13.41000000	-0.90072998	-0.25115279	0.12994589	-0.65033065	0.28686819	-0.62361782	-0.78171424	-0.26403849	-0.15533612	-0.84047073	-0.15450707	-0.17952239	-0.54500479	0.52731677	0.34158743	-0.51090861	0.04637113	0.41490457	-0.46982999	-0.06843081	-0.63693209	-0.73879524	-0.22258916	-0.34858491
1343	13.42000000	-0.90397357	-0.24908413	0.13270428	-0.65112054	0.28597333	-0.62534198	-0.78318111	-0.25607566	-0.15310550	-0.83584180	-0.15103439	-0.17949974	-0.53782216	0.53046490	0.34132648	-0.51091520	0.05350501	0.41544521	-0.46601899	-0.06734123	-0.64097797	-0.73950289	-0.22054735	-0.33399356
1344	13.43000000	-0.90522011	-0.24836268	0.13092360	-0.64771295	0.28628062	-0.63221563	-0.78502630	-0.25423089	-0.15341276	-0.83621292	-0.14861223	-0.17810252	-0.53075844	0.53365690	0.33570816	-0.50960796	0.05616795	0.41223685	-0.46718167	-0.06305241	-0.63994418	-0.74615620	-0.21898220	-0.32807762
1345	13.44000000	-0.90334011	-0.24647915	0.12949030	-0.64846990	0.28542756	-0.62875274	-0.78939130	-0.25043967	-0.15435284	-0.83908276	-0.15625055	-0.17709241	-0.52746809	0.53806327	0.33872865	-0.50927646	0.06542117	0.41146988	-0.46484657	-0.05642489	-0.64177258	-0.75167367	-0.22194436	-0.33318909
1346	13.45000000	-0.90476171	-0.24869022	0.13096243	-0.64826994	0.28169726	-0.63045228	-0.78879112	-0.24938158	-0.14299189	-0.83769918	-0.15723305	-0.16678245	-0.52767307	0.54361276	0.34285389	-0.50647756	0.06981348	0.41014563	-0.46222144	-0.05109104	-0.64159824	-0.75542035	-0.22377762	-0.32851477
